<?xml version="1.0" standalone="no"?>
<!DOCTYPE svg PUBLIC "-//W3C//DTD SVG 20010904//EN"
 "http://www.w3.org/TR/2001/REC-SVG-20010904/DTD/svg10.dtd">
<svg version="1.0" xmlns="http://www.w3.org/2000/svg"
 width="820.000000pt" height="762.000000pt" viewBox="0 0 820.000000 762.000000"
 preserveAspectRatio="xMidYMid meet">

<g transform="translate(0.000000,762.000000) scale(0.100000,-0.100000)"
fill="#000000" stroke="none">
<path d="M3175 7199 c-351 -45 -712 -213 -952 -442 -354 -339 -491 -800 -367
-1235 33 -117 120 -289 198 -392 72 -96 240 -262 333 -330 34 -25 63 -52 63
-60 0 -9 -34 -116 -75 -240 -41 -123 -73 -225 -71 -227 2 -2 128 58 279 134
l276 137 168 -32 c206 -39 373 -55 476 -47 67 6 77 10 72 24 -17 44 -37 167
-42 262 -34 625 426 1179 1089 1311 88 17 149 22 275 22 l162 1 -6 25 c-16 73
-60 186 -105 271 -222 427 -709 741 -1258 815 -116 15 -404 17 -515 3z m-160
-704 c56 -32 85 -90 85 -168 0 -67 -12 -102 -48 -140 -43 -45 -80 -60 -152
-60 -75 0 -121 17 -175 64 -83 73 -88 178 -12 257 79 83 208 103 302 47z
m1124 7 c94 -49 126 -184 68 -287 -83 -147 -362 -102 -407 66 -45 165 173 307
339 221z"/>
<path d="M4769 5985 c-482 -75 -885 -361 -1049 -743 -65 -152 -84 -245 -83
-417 0 -129 4 -164 26 -247 105 -395 423 -708 857 -846 266 -85 521 -97 797
-37 197 43 161 51 397 -80 115 -63 211 -113 213 -111 2 2 -22 90 -53 197 l-58
192 55 45 c197 164 372 386 442 560 87 217 88 449 4 677 -150 409 -590 735
-1090 809 -126 19 -339 19 -458 1z m-102 -656 c109 -53 124 -181 30 -253 -42
-32 -113 -51 -160 -42 -42 8 -100 54 -123 97 -32 62 -7 142 59 190 51 37 128
40 194 8z m890 0 c144 -70 114 -247 -48 -290 -67 -18 -116 -5 -165 45 -63 63
-70 125 -22 196 48 69 149 91 235 49z"/>
<path d="M1930 3485 c-8 -2 -49 -9 -90 -15 -117 -19 -258 -65 -466 -150 -219
-90 -696 -301 -1019 -450 -121 -56 -228 -104 -238 -107 -10 -3 -16 -11 -14
-17 19 -46 871 -1933 876 -1938 4 -4 121 67 261 157 140 91 284 180 319 197
156 75 272 77 449 7 40 -16 352 -174 695 -350 1030 -533 1142 -585 1350 -624
156 -30 354 -16 497 33 167 58 510 268 1563 957 531 347 1588 1054 1673 1118
130 98 234 209 276 295 29 58 33 77 33 142 0 62 -5 84 -27 126 -39 75 -112
145 -192 184 -62 31 -78 34 -180 38 -89 3 -129 0 -199 -17 -100 -24 -230 -75
-334 -132 -40 -21 -73 -39 -75 -39 -2 0 -3 33 -3 73 -1 83 -22 134 -81 191
-65 63 -134 89 -252 94 -215 10 -387 -44 -548 -170 l-62 -48 -72 74 c-200 206
-405 206 -785 -2 -44 -25 -181 -106 -305 -182 -124 -75 -271 -163 -328 -195
-72 -41 -100 -61 -92 -69 6 -6 128 -13 328 -17 353 -8 492 -20 632 -55 135
-34 232 -84 305 -158 71 -71 107 -141 129 -248 45 -216 -1 -387 -138 -523 -83
-82 -153 -125 -279 -173 -205 -77 -182 -75 -1030 -79 -825 -4 -843 -3 -1012
53 -221 72 -481 238 -715 455 -63 58 -63 58 112 -5 261 -93 548 -163 763 -186
78 -8 326 -10 845 -7 788 4 769 3 924 57 80 27 136 61 178 108 47 52 62 99 56
183 -13 176 -122 234 -493 258 -88 6 -248 11 -357 11 -305 0 -531 39 -808 140
-238 87 -354 152 -640 357 -751 539 -988 656 -1319 652 -53 -1 -103 -3 -111
-4z"/>
</g>
</svg>
