<?xml version="1.0" standalone="no"?>
<!DOCTYPE svg PUBLIC "-//W3C//DTD SVG 20010904//EN"
 "http://www.w3.org/TR/2001/REC-SVG-20010904/DTD/svg10.dtd">
<svg version="1.0" xmlns="http://www.w3.org/2000/svg"
 width="264.000000pt" height="191.000000pt" viewBox="0 0 264.000000 191.000000"
 preserveAspectRatio="xMidYMid meet">

<g transform="translate(0.000000,191.000000) scale(0.100000,-0.100000)"
fill="#000000" stroke="none">
<path d="M1284 1900 c-109 -22 -224 -121 -264 -228 -32 -83 -25 -204 15 -285
60 -121 182 -198 316 -199 217 -2 382 170 367 382 -16 220 -217 373 -434 330z
m220 -267 c-47 -56 -122 -163 -180 -260 -10 -16 -14 -12 -39 36 -15 30 -49 76
-76 102 -27 26 -46 50 -42 52 5 3 27 8 50 12 31 5 48 2 67 -10 l26 -17 70 75
c69 74 72 76 123 79 29 2 54 2 56 1 2 -1 -23 -33 -55 -70z"/>
<path d="M1762 1355 c-7 -14 -12 -27 -12 -29 0 -1 56 -41 125 -87 l124 -84 1
-368 0 -368 -56 3 -56 3 -169 305 c-184 332 -212 370 -276 370 -46 0 -83 -21
-180 -106 -88 -77 -151 -109 -196 -100 -36 7 -77 42 -77 65 0 9 34 56 75 105
l74 89 -25 20 c-14 11 -29 16 -33 11 -115 -133 -161 -196 -161 -217 0 -29 35
-83 71 -110 34 -24 102 -32 156 -18 38 10 81 41 223 160 50 42 73 46 103 19
20 -18 255 -428 384 -668 7 -14 13 -35 13 -48 0 -29 -48 -79 -84 -88 -51 -12
-70 8 -146 153 -40 76 -79 143 -88 150 -16 13 -52 1 -52 -18 0 -6 34 -74 76
-151 81 -151 81 -153 23 -184 -30 -15 -77 -18 -95 -6 -6 4 -46 62 -88 129 -83
132 -98 148 -121 139 -28 -10 -15 -44 61 -165 43 -69 73 -125 69 -132 -4 -6
-27 -20 -51 -30 -37 -17 -50 -18 -87 -8 -43 10 -45 13 -102 120 -58 110 -77
127 -104 95 -10 -12 -1 -35 41 -115 60 -115 59 -121 -27 -121 -85 0 -104 19
-215 215 -112 198 -99 185 -181 185 l-69 0 0 325 0 325 110 0 c105 0 112 1
161 31 28 18 75 39 105 48 l54 17 -30 29 -30 29 -93 -47 c-90 -46 -95 -47
-182 -47 l-90 0 -29 36 c-46 59 -71 64 -290 64 -250 0 -290 -13 -310 -105 -10
-47 50 -742 69 -797 18 -50 60 -94 101 -104 13 -3 97 -4 186 -3 153 4 165 5
197 28 18 13 42 44 53 68 19 43 19 43 71 43 l52 0 80 -141 c44 -78 93 -159
109 -181 55 -75 166 -107 250 -70 40 18 52 20 99 10 67 -14 114 -5 167 33 36
26 52 31 109 32 58 2 73 6 106 32 34 25 48 29 106 30 52 0 74 5 96 21 48 36
73 82 73 135 l0 49 39 0 c33 0 43 -5 62 -31 36 -51 70 -59 249 -59 172 0 206
7 247 51 12 13 26 36 32 52 6 15 27 196 46 402 36 369 36 376 18 412 -37 74
-48 78 -287 81 -219 3 -242 0 -298 -40 -15 -10 -34 0 -137 70 -66 45 -121 82
-124 82 -2 0 -9 -11 -15 -25z m-1216 -168 l24 -28 0 -350 c0 -227 -4 -366 -11
-395 -18 -70 -29 -74 -221 -74 -162 0 -167 1 -183 23 -27 38 -34 84 -60 400
-30 369 -32 402 -14 423 25 30 53 34 247 31 l194 -2 24 -28z m1786 -584 c23
-21 23 -55 -1 -77 -48 -44 -122 15 -87 70 19 28 60 32 88 7z"/>
<path d="M293 594 c-15 -24 -15 -29 -2 -53 28 -51 99 -35 99 22 0 40 -15 57
-52 57 -19 0 -33 -8 -45 -26z"/>
</g>
</svg>
