<?xml version="1.0" standalone="no"?>
<!DOCTYPE svg PUBLIC "-//W3C//DTD SVG 20010904//EN"
 "http://www.w3.org/TR/2001/REC-SVG-20010904/DTD/svg10.dtd">
<svg version="1.0" xmlns="http://www.w3.org/2000/svg"
 width="236.000000pt" height="213.000000pt" viewBox="0 0 236.000000 213.000000"
 preserveAspectRatio="xMidYMid meet">

<g transform="translate(0.000000,213.000000) scale(0.100000,-0.100000)"
fill="#000000" stroke="none">
<path d="M257 2061 c-52 -55 -57 -63 -57 -105 l0 -46 -65 0 c-111 0 -135 -24
-135 -136 0 -56 4 -68 25 -89 21 -22 33 -25 100 -25 l75 0 0 -784 c0 -808 1
-835 40 -856 21 -11 149 -14 175 -4 45 18 45 15 45 854 l0 790 150 0 150 0 0
-35 0 -35 65 0 65 0 0 35 0 35 390 0 390 0 0 -35 0 -35 64 0 65 0 3 33 3 32
226 3 226 2 51 111 c28 60 49 116 45 124 -4 13 -128 15 -949 15 l-944 0 0 48
c0 45 -3 51 -58 105 -32 31 -65 57 -73 57 -9 0 -41 -27 -72 -59z"/>
<path d="M663 1509 c-30 -15 -48 -33 -63 -64 -20 -42 -21 -55 -18 -437 l3
-393 23 -33 c47 -65 13 -62 757 -62 732 0 702 -2 755 55 l25 27 3 411 c2 395
1 413 -17 444 -45 72 1 68 -751 71 -668 2 -675 2 -717 -19z m1398 -78 c18 -22
19 -44 19 -409 0 -382 0 -386 -22 -409 l-21 -23 -668 0 c-642 0 -668 1 -690
19 l-24 19 -3 378 c-3 397 -1 422 41 442 15 7 233 10 685 9 l664 -2 19 -24z"/>
<path d="M864 1161 c-39 -24 -61 -73 -48 -109 9 -25 36 -47 104 -85 27 -14 30
-20 20 -32 -14 -17 -51 -12 -88 12 -29 18 -33 15 -42 -36 -8 -44 -9 -43 58
-56 89 -18 172 31 172 102 0 45 -20 68 -88 102 -43 22 -51 43 -19 49 9 2 31
-4 49 -12 17 -9 33 -14 35 -12 3 3 9 22 13 42 11 48 3 54 -75 54 -41 0 -70 -6
-91 -19z"/>
<path d="M1126 1150 c-43 -38 -60 -86 -54 -157 8 -95 71 -149 162 -138 94 12
137 65 137 171 0 109 -43 154 -150 154 -53 0 -64 -4 -95 -30z m128 -56 c11
-11 16 -35 16 -79 0 -85 -28 -115 -76 -81 -16 12 -19 27 -19 86 0 52 4 73 15
80 22 14 47 12 64 -6z"/>
<path d="M1411 1020 l1 -160 94 0 94 0 0 30 c0 17 0 33 0 38 0 4 -21 9 -47 12
l-48 5 4 118 3 117 -51 0 -51 0 1 -160z"/>
<path d="M1642 1021 l1 -159 63 -7 c144 -15 224 47 224 175 0 62 -21 105 -63
130 -26 16 -50 20 -129 20 l-98 0 2 -159z m163 75 c22 -16 33 -112 16 -145
-15 -28 -81 -31 -82 -3 -2 44 3 147 7 154 8 12 38 9 59 -6z"/>
</g>
</svg>
